<?xml version="1.0" standalone="no"?>
<!DOCTYPE svg PUBLIC "-//W3C//DTD SVG 20010904//EN"
 "http://www.w3.org/TR/2001/REC-SVG-20010904/DTD/svg10.dtd">
<svg version="1.0" xmlns="http://www.w3.org/2000/svg"
 width="32.000000pt" height="32.000000pt" viewBox="0 0 32.000000 32.000000"
 preserveAspectRatio="xMidYMid meet">

<g transform="translate(0.000000,32.000000) scale(0.100000,-0.100000)"
fill="#000000" stroke="none">
<path d="M0 160 l0 -160 160 0 160 0 0 160 0 160 -160 0 -160 0 0 -160z m58
106 c-7 -8 -15 -12 -17 -11 -5 6 10 25 20 25 5 0 4 -6 -3 -14z m112 -6 c-8 -5
-10 -10 -5 -10 6 0 11 -9 12 -20 1 -11 -2 -20 -8 -20 -5 0 -8 3 -8 8 4 21 -2
32 -13 26 -9 -5 -9 -2 1 9 7 9 19 17 25 17 6 0 4 -5 -4 -10z m37 -39 c-5 -21
24 -56 36 -44 4 3 7 -1 7 -10 0 -9 -5 -19 -12 -23 -6 -4 -8 -3 -5 3 10 16 -32
48 -59 45 -25 -4 -61 22 -45 32 5 3 11 -1 15 -9 8 -22 47 -19 53 5 3 11 8 20
10 20 3 0 3 -9 0 -19z m-111 -39 c-15 -15 -15 -15 -4 10 7 15 15 23 17 17 2
-6 -4 -18 -13 -27z m44 -104 c0 -4 -9 -8 -20 -8 -11 0 -20 4 -20 8 0 4 9 8 20
8 11 0 20 -4 20 -8z m67 -4 c-3 -3 -12 -4 -19 -1 -8 3 -5 6 6 6 11 1 17 -2 13
-5z m63 -19 c-20 -24 -203 -22 -221 3 -11 14 -11 15 1 4 9 -8 48 -12 112 -12
80 0 100 3 105 15 3 9 8 14 11 11 3 -3 -1 -12 -8 -21z"/>
</g>
</svg>
